<?xml version="1.0" encoding="utf-8"?>
<!-- Generator: Adobe Illustrator 21.1.0, SVG Export Plug-In . SVG Version: 6.00 Build 0)  -->
<svg version="1.1" id="Laag_1" xmlns="http://www.w3.org/2000/svg" xmlns:xlink="http://www.w3.org/1999/xlink" x="0px" y="0px"
	 viewBox="0 0 146.8 146.2" style="enable-background:new 0 0 146.8 146.2;" xml:space="preserve">
<style type="text/css">
	.st0{fill:#525D91;}
	.st1{fill:#374371;}
	.st2{fill:#FDFDFD;}
	.st3{fill:#CCCDCF;}
</style>
<g id="Fb">
	<path class="st0" d="M67.6,146.1C31.7,143.3,4.4,118-0.7,83c-4.8-32.8,13.9-67.5,46-78.3C88.7-9.7,138.9,8.3,145.1,66
		c-9.9-9-19.9-17.9-29.8-26.9c-4-6.1-9-9.6-17-8.9c-9.2,0.8-18.6,0.5-27.9,0.7c-6.4-0.1-12.9-0.4-19.3-0.3
		C33.3,30.6,30.4,33.4,30.1,51c-0.2,11.4,0.3,22.8-0.1,34.2c-0.5,13.5-1,26.8,13.7,34.1C49.6,129.9,60.8,136.1,67.6,146.1z"/>
	<path class="st1" d="M115.3,39.1c9.9,9,19.9,17.9,29.8,26.9c3.7,47.7-29.9,82.4-77.5,80.1c-6.9-10-18-16.2-24-26.9
		c5.9-0.2,11.8-0.6,17.7-0.6c4.1,0,9.6,0,9.6-4.5c-0.1-10.3,9.7-23-6.1-30.3c-4.1-1.9-2.5-8.7-2.1-8.8C80,73.7,69,58.8,74.1,51.8
		c5.4-3.5,10.8-7.1,17.7-6.6c2.5,0.2,5.1,0.3,5.4,3.6c0.3,2.9,1.1,7.4-2.3,7.6c-9.4,0.4-9.6,6-9.6,13.1c0,8.8,9.6,2.8,12.1,9.3
		c-15.8,4.3-12,17.2-11.9,28.3c0.1,12.5,6.5,15.9,17.9,10.2c8.4-4.2,12.3-10.2,11.9-20C114.8,77.9,115.3,58.5,115.3,39.1z"/>
	<path class="st2" d="M74.1,51.8C69,58.8,80,73.7,62.8,75c-0.5,0-2,6.9,2.1,8.8c15.8,7.3,6,20,6.1,30.3c0,4.5-5.5,4.4-9.6,4.5
		c-5.9,0-11.8,0.4-17.7,0.6C29,111.9,29.4,98.7,29.9,85.1c0.4-11.4-0.1-22.8,0.1-34.2c0.3-17.6,3.2-20.4,21.1-20.4
		c6.4,0,12.9,0.2,19.3,0.3C75.3,37.2,72.4,44.9,74.1,51.8z"/>
	<path class="st3" d="M74.1,51.8c-1.7-6.9,1.2-14.6-3.7-20.9c9.3-0.2,18.6,0.1,27.9-0.7c7.9-0.7,13,2.8,17,8.9
		c0,19.4-0.5,38.7,0.1,58.1c0.3,9.9-3.5,15.8-11.9,20c-11.4,5.7-17.8,2.3-17.9-10.2c-0.1-11.2-3.9-24,11.9-28.3
		c-2.5-6.5-12.1-0.4-12.1-9.3c0-7.1,0.3-12.7,9.6-13.1c3.4-0.2,2.5-4.7,2.3-7.6c-0.3-3.3-2.9-3.4-5.4-3.6
		C84.9,44.7,79.5,48.3,74.1,51.8z"/>
</g>
</svg>
