<?xml version="1.0" encoding="utf-8"?>
<!-- Generator: Adobe Illustrator 21.1.0, SVG Export Plug-In . SVG Version: 6.00 Build 0)  -->
<svg version="1.1" id="Laag_1" xmlns="http://www.w3.org/2000/svg" xmlns:xlink="http://www.w3.org/1999/xlink" x="0px" y="0px"
	 viewBox="0 0 519.4 200.9" style="enable-background:new 0 0 519.4 200.9;" xml:space="preserve">
<style type="text/css">
	.st0{display:none;fill:#1D1D1B;}
	.st1{fill:#FFFFFF;}
	.st2{fill:none;}
	.st3{fill:none;stroke:#FFFFFF;stroke-miterlimit:10;}
</style>
<rect x="0" class="st0" width="519.4" height="200.9"/>
<g>
	<path class="st1" d="M187.5,55.9c0.1,4.2,0,8.3,0,12.5c-0.6-3.3-0.5-6.5-0.6-9.8c-0.1-2.3-0.5-4.6-1-6.9c-0.2-0.6-1.3-1-2-1.6
		c-0.3,0.7-0.7,1.4-0.7,2.1c-0.1,1,0.1,1.9,0.2,2.9c-0.2,0-0.4,0-0.6,0c-0.1-1.5-0.2-2.9-0.4-5c-3.4,1.6-6.5,2.8-9.4,4.5
		c-3.5,2-6.7,4.3-10,6.7c-0.6,0.5-1.2,1.6-1.1,2.4c0.4,4.9,1.9,9.6,3.7,14c6.1-3.1,11.8-6.1,17.5-9.1c0.4,0.3,0.9,1.1,1.4,1.1
		c2.6,0.1,2.9,2.2,3.6,4c1.7,4.5,3.3,9.1,5.1,13.6c0.3,0.7,1.3,1.7,2,1.7c3,0.3,5.1,1.8,6.1,4.8c1.1,3.3,0.6,5.1-2.1,7.1
		c-1.4,1-3,1.8-5,3c1.5,3,3.2,6.1,4.8,9.3c5-5.1,11.5-7.6,18.3-9.4c4.9-1.3,9.7-2,14.2,1.6c1.6,1.3,3.9,1.8,6,2.7
		c-0.1,0.3-0.2,0.7-0.1,0.4c2.8,1.4,6.2,2.1,7.7,4.2c2.6,3.6,7,5.7,8.6,10.2c0.8,2.4,3.3,4.1,4.3,6.5c1.3,3.2,2.3,6.7,2.7,10.1
		c0.3,2.8,1.9,5.1,2.4,7.8c0.7,3.4,1.5,6.3-0.3,9.4c-0.1,0.2-0.1,0.5-0.2,0.8c0.5-0.1,1-0.3,2-0.5c-2.2,4.2-4.1,7.9-6,11.6
		c0.3,0.1,0.5,0.2,0.8,0.4c3.8-5.5,7.1-11.3,7.6-18.2c0.3-4.1-0.1-8.2-0.7-12.2c-2.1-12.9-8.7-23.1-19.8-30
		c-4.1-2.6-8.9-4.1-13.8-6.3c5.8-2.6,11.5-5.1,17.9-8c-1-0.4-1.8-1-2.5-0.9c-1.5,0.2-2.9,0.8-4.3,1.3c-2,0.8-3.5,0-4.6-1.7
		c-1.4-2.1-1.3-4.2-0.2-6.4c0.4-0.8,0.4-1.9,0.2-2.7c-0.5-1.9-1.4-3.7-2-5.5c-1.3-3.6-2-7.5-4.1-10.6c-2.1-3.2-5.8-5.3-8.4-8.2
		c-3.8-4.2-7.3-8.8-10.9-13.2c-5.4-6.5-11.9-11.7-20.1-14.3c-4.4-1.4-4.4-1.4-6.8,2c0,0,0.1-0.1,0.1-0.1
		C187.2,41.5,187.4,48.7,187.5,55.9z"/>
	<g>
		<path class="st1" d="M80.5,130.9l-35-91.2H0v16.6h16v99.7H0v16.6h47v-16.6H32.4V56.4L77.8,174H81c0-14.8,0-29.6,0-44.4L80.5,130.9
			z"/>
		<path class="st1" d="M158.7,53.1c0.1,1.1,0.2,2.3,0.4,3.4h2.8V39.7h-1.8C158.7,43.9,158.4,48.5,158.7,53.1z"/>
		<g>
			<path class="st1" d="M199.8,118.1c1.6-0.2,3.2-0.4,4.8-0.6c0.6-0.1,1.2-0.2,1.8-0.3v-4C203.9,113.9,201.5,115.2,199.8,118.1z"/>
			<path class="st1" d="M201.4,113.4c1.5-0.4,3-0.8,4.5-1.2l-0.8-1.2C203.8,111.7,202.6,112.5,201.4,113.4z"/>
			<path class="st1" d="M81,0c0,43.3,0,86.5,0,129.6l34.9-89.9h44.2c1.3-3.9,3.6-7.5,7.2-10.5c8.4-6.9,17.6-12.4,28-15.8
				c0.5-0.2,1.1-0.2,1.7-0.3c0.5-0.1,1.1-0.1,2.5-0.3c-1.1,0.7-1.4,1-1.8,1.2c-8.8,2.7-13.8,8.9-15.5,17.6c-0.5,2.7-0.7,5.4-0.8,8.2
				h4.8c0.3-1.8,0.6-3.6,0.9-5.4l-0.1,0.1c1-9.2,7.4-15.5,16.3-16.7c8.2-1.1,15,2.5,21.3,7c5.8,4.1,10.6,9.2,14.6,15.1h2.9
				c-0.1-0.3-0.3-0.5-0.5-0.8c-2.2-3-4.3-6.1-6.8-8.9c-6.6-7.3-14-13.7-23.8-16.3c-3.3-0.9-6.8-0.9-10.5-1.3
				c6.4-0.7,12.3,0,17.8,2.8c9.8,5,17.2,12.7,23.4,21.4c0.7,0.9,1.2,1.9,1.6,3h38.4v16.8H264l-6.6,10c1.4,2,2.8,3.9,4.3,5.8
				c0.5,0.7,1.7,1.4,2.5,1.3c3.1-0.2,4.3,1.9,5.1,4.3c0.8,2.3,0.4,4.5-2.1,5.7c-1.9,0.9-4,1.7-5.8,2.8c-0.7,0.4-1.3,1.6-1.3,2.5
				c0,1.4,0.2,2.9,0.8,4.1c1,2.1,2.3,3.8,5,4.4c4.8,1,7.3,5.2,10.5,8.3c2,2,3.5,4.6,5.5,7.2c-0.9,0.6-1.6,1.2-2.7,1.9
				c-8.2-15.2-20.7-19.1-36.6-12.7c0.8,0,1.6,0,2.5-0.1c0.9-0.1,1.8-0.3,2.8-0.4c12.9-1.4,23,4.3,29.2,16.1c0.4,0.8,0.3,2,0.3,3
				c0,3.4-0.5,6.8,0.1,10.1c0.4,2.5,2.1,4.9,3.2,7.3c0.4,1,1.2,2,1.1,3c-0.7,7.1-3.5,13.6-7.1,19.6c-0.5,0.8-1,1.6-1.6,2.6
				c4.9-2.9,8.3-8.7,12.7-21.6c4.1-0.3,5,0.5,3.9,4.2c-0.8,2.9-2,5.9-3.8,8.3c-3.8,5.3-8.2,10.3-14.5,12.9
				c-3.3,1.4-6.9,2.1-10.2,3.6c-3.5,1.5-6.8,3.4-10.1,5.2c-1.4,0.7-2.7,1.7-4.3,2.7c2.7-2.9,5.4-5.2,7.3-8.1
				c4.8-6.9,6.2-14.6,5.3-23c-1.1-10.5-5-19.7-11.9-27.6c-4.9-5.6-10.5-9.9-17.5-11.9l-3.1,4.7v8.3c5.9,3.7,10.3,9.7,13.4,17.3
				c2.1,5.2,3.9,10.6,3.3,16.3c-0.1,0.8-0.2,1.6-0.3,2.4h2V174h-14.2c-4.1,2-8.3,2.9-12.7,3.3c-4,0.3-8-0.9-11.5-3.3h-18.3v-16.8
				h3.4c-1.9-3.7-3.2-7.8-4-12.1c-1.2-6.2-0.7-12.5,0.3-18.8c0.3-2.1-0.5-4.4-0.9-6.5c-0.2-1-0.6-2-0.8-3c-1-4.3-3.3-5.9-7.5-5.2
				c-1.3,0.2-2.6,0.6-3.8,1.1c-2.2,0.9-4.5,1.4-6.2-0.6c-1.8-2.1-2.1-4.6-1.2-7.4c0.4-1.4,0.6-3,0.4-4.4c-0.6-5.7-1.3-11.3-2.3-16.9
				c-0.6-3.4-2-6.6-2.8-9.9c-1.3-5.6-3.2-11.2-4-16.8h-13.2v99.5h16.1v16.6h-50.1v-16.6h15.9V56.4L81.7,174H81c0,8.9,0,17.9,0,26.8
				c125,0,313.8,0,438.4,0c0-67.1,0-133.9,0-200.9C394.6,0,205.9,0,81,0z M320.4,126.5h-12v48h-12v-48h-12v-6h36V126.5z
				 M362.4,162.5c0,3.3-1.2,6.1-3.5,8.5c-2.4,2.4-5.2,3.6-8.4,3.6h-12c-3.3,0-6.1-1.2-8.5-3.5c-2.4-2.4-3.6-5.2-3.6-8.5v-42h12v42
				c0,1.6,0.6,3,1.8,4.2c1.2,1.2,2.6,1.8,4.2,1.8c1.7,0,3.1-0.6,4.3-1.8c1.2-1.2,1.8-2.6,1.8-4.2v-42h12V162.5z M416.5,174.5h-2.7
				l-33.3-30v30h-6v-54h2.8l33.2,30v-30h6V174.5z M458.4,126.5h-18v18h12v6h-12v18h18v6h-30v-54h30V126.5z M484.2,136.8l12.7,14.3
				c2.4,2.6,3.5,5.5,3.5,8.5v3c0,3.3-1.2,6.1-3.5,8.5c-2.4,2.4-5.2,3.6-8.5,3.6h-6c-4,0-7-1-9-3c-2-2-3-5-3-9h6c0,0.4,0,0.8,0,1
				c0,1.6,0.6,2.9,1.9,3.7c1.2,0.9,2.6,1.3,4.1,1.3c2.1,0,3.6-0.5,4.6-1.5c0.9-1,1.4-2.5,1.4-4.5c0-1.5-0.6-3-1.7-4.2L473.9,144
				c-2.4-2.6-3.5-5.4-3.5-8.5v-3c0-3.3,1.2-6.1,3.5-8.5s5.2-3.6,8.5-3.6h6c7.5,0,11.5,4,12,12h-6c-0.5-4-2.4-6-5.7-6
				c-2.1,0-3.7,0.5-4.8,1.5c-1.1,1-1.6,2.5-1.6,4.5C482.4,134,483,135.4,484.2,136.8z"/>
			<path class="st2" d="M226.8,112.2c0-0.4,0-0.8,0-1.1c-4.2-0.3-8.5-1-12.7-0.6c-2.8,0.3-5.5,1-8.2,1.8l0.5,0.8v0.3
				c1.9-0.5,4-0.7,6-0.9C217.2,111.8,222,112.2,226.8,112.2z"/>
			<path class="st3" d="M206,173.6c0.2,0.1,0.4,0.3,0.6,0.4h24.2c0.4-0.2,0.9-0.4,1.3-0.7c6.7-3.8,9.8-9.3,10.9-16.1h-16.4v-36
				c-5.5-3.5-12.3-5-20.3-4v40h-14.6C195,163.7,199.7,169.2,206,173.6z"/>
			<path class="st3" d="M225.8,107.3c1.4,0.2,2.8,0.5,4.1,0.9l27.6-41.7c-1.8-2.5-3.5-4.9-5.2-7.4c-0.6-0.9-1.2-1.8-1.5-2.3
				c-1,0-1.8,0-2.6,0c-1.2-2.6-2.5-5.1-3.7-7.7c-0.9-2.1-1.7-4.2-2.6-6.3c0.3-0.1,0.6-0.3,0.9-0.4c0.9,1.2,1.8,2.3,2.7,3.5
				c-0.6-2.1-1.2-4.2-2-6.2h-1.3c0.3,0.9,0.1,1.7-1.4,2.2c-0.5-0.7-1-1.4-1.5-2.2h-11v16.8h16.9L218,98l-29.7-41.5h16.9V39.7h-19.1
				c-0.3,1.9-0.6,3.8-0.7,5.7c-0.1,1.7,0.4,3.5-1.7,3.7c-1.7,0.2-2.9-1.3-2.8-3.2c0.1-2.1,0.2-4.2,0.2-6.3H150v16.8h16.4l38.6,54.5
				C211.4,107.4,218.4,106.3,225.8,107.3z"/>
		</g>
	</g>
	<path class="st1" d="M246.5,54.8c-2-3.5-3.9-7.1-5.9-10.7c-6.4,3.8-12.4,7.3-19.1,11.3c4.1,3.8,7.7,7.1,11.3,10.2
		c0.4,0.3,1.6,0,2.2-0.4c3.9-2.1,7.7-4.2,11.5-6.4c0.6-0.4,0.9-1.2,1.4-1.9c0,0,0.1,0.1,0.1,0.1c0,0,0,0,0,0l0,0c0,0,0,0,0-0.1
		c0,0,0,0,0,0C247.5,56.2,247,55.5,246.5,54.8z"/>
	<path class="st1" d="M230.6,172.3c6.2-4.8,7-11.9,6.8-18.8c-0.2-9.5-4.8-17.2-12.2-23.7c2,4.2,4.2,8,5.5,12
		c1.4,4.1,2.6,8.4,2.6,12.7c0.3,14.6-7.6,20.4-19.9,19.2c-1.6-0.2-4.1-0.4-4.7-1.4c-1.1-1.9-2.3-0.8-3.8-1.4
		C210.6,177.6,222.8,178.4,230.6,172.3z"/>
	<path class="st1" d="M193.9,138.8c-0.2-2.4,0.9-4.9-1.7-6.7c-3.5,7.3,1.2,26.1,7.3,32.1c-1.1-3.2-2.4-6.1-3.1-9.1
		C195.3,149.7,194.3,144.3,193.9,138.8z"/>
	<path class="st1" d="M249.7,69.5c-2.4,1.3-4.7,2.6-7.2,4c1,1.4,1.6,2.2,2.5,3.5c0.5-3.5,2.6-4.8,5.2-5.5c0.3-0.1,0.5-0.9,0.7-1.5
		C250.6,69.9,250,69.4,249.7,69.5z"/>
	<path class="st1" d="M173.5,89.2c0.2,0.1,0.3,0.2,0.5,0.3c2.5-0.8,5.1-1.5,7.6-2.4c0.6-0.2,0.7-1.5,1.1-2.3c-0.3-0.2-0.7-0.5-1-0.7
		C178.9,85.8,176.2,87.5,173.5,89.2z"/>
</g>
</svg>
